<?xml version="1.0" encoding="UTF-8"?>
<svg width="420" height="168" viewBox="0 0 420 168" xmlns="http://www.w3.org/2000/svg">
  <!--
    BUZUR Logo — v2.0 — All text outlined, zero font dependencies
    Renders correctly on GitHub, Figma, print, anywhere
    Colors: #2a9d5c (green), #1a6b3a (green dim), #0a120a (shield bg), #ffffff (wordmark)
    MIT License — https://github.com/SummSolutions/Buzur
  -->

  <rect width="420" height="168" fill="#080b08" rx="4"/>
  <!-- ══ SHIELD MARK ══ -->
  <!-- Outer shield -->
  <path d="M70 2L130 28L130 88Q130 130 70 154Q10 130 10 88L10 28Z" fill="#0a120a" stroke="#2a9d5c" stroke-width="2.8"/>
  <!-- Inner shield ring -->
  <path d="M70 18L117 40L117 88Q117 122 70 140Q23 122 23 88L23 40Z" fill="none" stroke="#1a6b3a" stroke-width="1.4"/>
  <!-- Honeycomb mesh -->
  <polygon points="54,44 61.8,48.5 61.8,57.5 54,62 46.2,57.5 46.2,48.5" fill="none" stroke="#1a3a20" stroke-width="0.9"/>
  <polygon points="70,44 77.8,48.5 77.8,57.5 70,62 62.2,57.5 62.2,48.5" fill="none" stroke="#1a4a28" stroke-width="0.9"/>
  <polygon points="86,44 93.8,48.5 93.8,57.5 86,62 78.2,57.5 78.2,48.5" fill="none" stroke="#1a3a20" stroke-width="0.9"/>
  <polygon points="46,57.5 53.8,62 53.8,71 46,75.5 38.2,71 38.2,62" fill="none" stroke="#1a4a28" stroke-width="0.9"/>
  <polygon points="62,57.5 69.8,62 69.8,71 62,75.5 54.2,71 54.2,62" fill="none" stroke="#2a9d5c" stroke-width="1.2"/>
  <polygon points="78,57.5 85.8,62 85.8,71 78,75.5 70.2,71 70.2,62" fill="none" stroke="#2a9d5c" stroke-width="1.2"/>
  <polygon points="94,57.5 101.8,62 101.8,71 94,75.5 86.2,71 86.2,62" fill="none" stroke="#1a4a28" stroke-width="0.9"/>
  <polygon points="54,71 61.8,75.5 61.8,84.5 54,89 46.2,84.5 46.2,75.5" fill="none" stroke="#2a9d5c" stroke-width="1.3"/>
  <polygon points="70,71 77.8,75.5 77.8,84.5 70,89 62.2,84.5 62.2,75.5" fill="#2a9d5c" stroke="#2a9d5c" stroke-width="0.5"/>
  <polygon points="86,71 93.8,75.5 93.8,84.5 86,89 78.2,84.5 78.2,75.5" fill="none" stroke="#2a9d5c" stroke-width="1.3"/>
  <polygon points="46,84.5 53.8,89 53.8,98 46,102.5 38.2,98 38.2,89" fill="none" stroke="#1a4a28" stroke-width="0.9"/>
  <polygon points="62,84.5 69.8,89 69.8,98 62,102.5 54.2,98 54.2,89" fill="none" stroke="#2a9d5c" stroke-width="1.2"/>
  <polygon points="78,84.5 85.8,89 85.8,98 78,102.5 70.2,98 70.2,89" fill="none" stroke="#2a9d5c" stroke-width="1.2"/>
  <polygon points="94,84.5 101.8,89 101.8,98 94,102.5 86.2,98 86.2,89" fill="none" stroke="#1a4a28" stroke-width="0.9"/>
  <polygon points="54,98 61.8,102.5 61.8,111.5 54,116 46.2,111.5 46.2,102.5" fill="none" stroke="#1a3a20" stroke-width="0.9"/>
  <polygon points="70,98 77.8,102.5 77.8,111.5 70,116 62.2,111.5 62.2,102.5" fill="none" stroke="#1a4a28" stroke-width="0.9"/>
  <polygon points="86,98 93.8,102.5 93.8,111.5 86,116 78.2,111.5 78.2,102.5" fill="none" stroke="#1a3a20" stroke-width="0.9"/>
  <!-- Redraw borders on top -->
  <path d="M70 18L117 40L117 88Q117 122 70 140Q23 122 23 88L23 40Z" fill="none" stroke="#1a6b3a" stroke-width="1.4"/>
  <path d="M70 2L130 28L130 88Q130 130 70 154Q10 130 10 88L10 28Z" fill="none" stroke="#2a9d5c" stroke-width="2.8"/>

  <!-- ══ DIVIDER ══ -->
  <line x1="148" y1="10" x2="148" y2="152" stroke="#1a2a1a" stroke-width="1"/>

  <!-- ══ BUZUR WORDMARK — outlined paths, scale 0.82, translate (160,38) ══ -->
  <g transform="translate(160,38) scale(0.82)">
    <path d="m 27.632812,32.832031 q 3.199219,0 4.851563,-1.40625 1.652344,-1.40625 1.652344,-4.148437 0,-2.707032 -1.652344,-4.113282 -1.652344,-1.441406 -4.851563,-1.441406 h -7.488281 v 11.109375 z m 0.457032,22.957031 q 4.078125,0 6.117187,-1.722656 2.074219,-1.722656 2.074219,-5.203125 0,-3.410156 -2.039063,-5.097656 -2.039062,-1.722656 -6.152343,-1.722656 H 20.144531 V 55.789062 Z M 40.675781,36.910156 q 4.359375,1.265625 6.75,4.675781 2.390625,3.410157 2.390625,8.367188 0,7.59375 -5.132812,11.320312 Q 39.550781,65 29.074219,65 H 6.609375 V 12.511719 h 20.320312 q 10.933594,0 15.820313,3.304687 4.921875,3.304688 4.921875,10.582031 0,3.832032 -1.792969,6.539063 -1.792969,2.671875 -5.203125,3.972656 z" fill="#ffffff"/>
    <path d="m 64.488281,12.511719 h 13.535156 v 31.464843 q 0,6.503907 2.109375,9.316407 2.144532,2.777343 6.960938,2.777343 4.851562,0 6.960937,-2.777343 2.144532,-2.8125 2.144532,-9.316407 V 12.511719 h 13.535161 v 31.464843 q 0,11.144532 -5.58985,16.59375 -5.589843,5.449219 -17.05078,5.449219 -11.425781,0 -17.015625,-5.449219 -5.589844,-5.449218 -5.589844,-16.59375 z" fill="#ffffff"/>
    <path d="m 123.38672,12.511719 h 44.12109 v 8.191406 l -28.16015,34.066406 h 28.96875 V 65 h -45.73828 v -8.191406 l 28.16015,-34.066407 h -27.35156 z" fill="#ffffff"/>
    <path d="m 181.16016,12.511719 h 13.53515 v 31.464843 q 0,6.503907 2.10938,9.316407 2.14453,2.777343 6.96093,2.777343 4.85157,0 6.96094,-2.777343 2.14453,-2.8125 2.14453,-9.316407 V 12.511719 h 13.53516 v 31.464843 q 0,11.144532 -5.58984,16.59375 -5.58985,5.449219 -17.05079,5.449219 -11.42578,0 -17.01562,-5.449219 -5.58984,-5.449218 -5.58984,-16.59375 z" fill="#ffffff"/>
    <path d="m 261.85547,35.785156 q 4.2539,0 6.08203,-1.582031 1.86328,-1.582031 1.86328,-5.203125 0,-3.585938 -1.86328,-5.132813 -1.82813,-1.546875 -6.08203,-1.546875 h -5.69531 v 13.464844 z m -5.69531,9.351563 V 65 H 242.625 V 12.511719 h 20.67187 q 10.3711,0 15.1875,3.480469 4.85157,3.480468 4.85157,11.003906 0,5.203125 -2.53125,8.542968 -2.4961,3.339844 -7.5586,4.921875 2.77735,0.632813 4.95703,2.882813 2.21485,2.214844 4.46485,6.75 L 290.01562,65 h -14.41406 l -6.39844,-13.042969 q -1.93359,-3.9375 -3.9375,-5.378906 -1.96875,-1.441406 -5.27343,-1.441406 z" fill="#ffffff"/>
  </g>

  <!-- ══ TAGLINE — outlined paths, scale 0.82, translate (162,114) ══ -->
  <g transform="translate(162,114) scale(0.82)">
    <path d="m 6.9570312,10.833984 v 1.250489 Q 6.2270508,11.735352 5.5795898,11.563965 4.9321289,11.392578 4.3291016,11.392578 q -1.0473633,0 -1.6186524,0.40625 -0.5649414,0.40625 -0.5649414,1.155274 0,0.628418 0.3745117,0.952148 0.3808594,0.317383 1.4345703,0.51416 l 0.7744141,0.158692 q 1.4345703,0.272949 2.1137695,0.964843 0.6855469,0.685547 0.6855469,1.840821 0,1.377441 -0.9267578,2.088379 -0.9204102,0.710937 -2.7041016,0.710937 -0.6728515,0 -1.4345703,-0.152344 -0.7553711,-0.152343 -1.56787107,-0.450683 v -1.320313 q 0.78076167,0.437988 1.52978517,0.660156 0.7490234,0.222168 1.4726562,0.222168 1.0981446,0 1.6948243,-0.43164 0.5966796,-0.431641 0.5966796,-1.231446 0,-0.698242 -0.4316406,-1.091796 -0.425293,-0.393555 -1.402832,-0.590332 L 3.5737305,15.645508 Q 2.1391602,15.359863 1.4980469,14.750488 0.85693359,14.141113 0.85693359,13.055664 q 0,-1.256836 0.88232421,-1.980469 0.8886719,-0.723632 2.4438477,-0.723632 0.6665039,0 1.3583984,0.120605 0.6918945,0.120605 1.4155273,0.361816 z" fill="#2a9d5c"/>
    <path d="m 19.624512,11.25293 v 1.35205 q -0.647461,-0.603027 -1.383789,-0.901367 -0.729981,-0.29834 -1.555176,-0.29834 -1.625,0 -2.488281,0.996582 -0.863282,0.990235 -0.863282,2.869141 0,1.872559 0.863282,2.869141 0.863281,0.990234 2.488281,0.990234 0.825195,0 1.555176,-0.29834 0.736328,-0.29834 1.383789,-0.901367 v 1.339356 q -0.672852,0.457031 -1.428223,0.685546 -0.749023,0.228516 -1.586914,0.228516 -2.151855,0 -3.389648,-1.313965 -1.237793,-1.320312 -1.237793,-3.599121 0,-2.285156 1.237793,-3.599121 1.237793,-1.320312 3.389648,-1.320312 0.850586,0 1.599609,0.228515 0.755371,0.222168 1.415528,0.672852 z" fill="#2a9d5c"/>
    <path d="m 27.772461,11.786133 -1.739258,4.716308 h 3.484863 z m -0.723633,-1.263184 h 1.453613 L 32.114258,20 H 30.78125 L 29.917969,17.568848 H 25.645996 L 24.782715,20 h -1.352051 z" fill="#2a9d5c"/>
    <path d="m 36.498047,10.522949 h 1.726562 l 4.202149,7.928223 v -7.928223 h 1.24414 V 20 H 41.944336 L 37.742187,12.071777 V 20 h -1.24414 z" fill="#2a9d5c"/>
    <path d="m 57.637207,15.474121 v 3.472168 h 2.056641 q 1.034668,0 1.529785,-0.425293 0.501465,-0.431641 0.501465,-1.313965 0,-0.888672 -0.501465,-1.307617 -0.495117,-0.425293 -1.529785,-0.425293 z m 0,-3.897461 v 2.856445 h 1.897949 q 0.939453,0 1.396485,-0.349121 0.463379,-0.355468 0.463379,-1.079101 0,-0.717285 -0.463379,-1.072754 Q 60.474609,11.57666 59.535156,11.57666 Z M 56.35498,10.522949 h 3.275391 q 1.466309,0 2.259766,0.609375 0.793457,0.609375 0.793457,1.73291 0,0.869629 -0.40625,1.383789 -0.40625,0.514161 -1.19336,0.641114 0.945801,0.203125 1.466309,0.850586 0.526855,0.641113 0.526855,1.605957 0,1.269531 -0.863281,1.961425 Q 61.350586,20 59.757324,20 H 56.35498 Z" fill="#2a9d5c"/>
    <path d="m 68.273437,10.522949 h 5.992188 v 1.079102 h -4.709961 v 2.805664 h 4.513184 v 1.079101 h -4.513184 v 3.434082 h 4.824219 V 20 h -6.106446 z" fill="#2a9d5c"/>
    <path d="m 79.487305,10.522949 h 5.446289 v 1.079102 h -4.164063 v 2.792969 h 3.757813 v 1.079101 H 80.769531 V 20 h -1.282226 z" fill="#2a9d5c"/>
    <path d="m 93.811523,11.392578 q -1.396484,0 -2.221679,1.041016 -0.818848,1.041015 -0.818848,2.837402 0,1.790039 0.818848,2.831055 0.825195,1.041015 2.221679,1.041015 1.396485,0 2.208985,-1.041015 0.818847,-1.041016 0.818847,-2.831055 0,-1.796387 -0.818847,-2.837402 -0.8125,-1.041016 -2.208985,-1.041016 z m 0,-1.041015 q 1.993164,0 3.186524,1.339355 1.193359,1.333008 1.193359,3.580078 0,2.240723 -1.193359,3.580078 -1.19336,1.333008 -3.186524,1.333008 -1.999511,0 -3.199218,-1.333008 -1.19336,-1.333008 -1.19336,-3.580078 0,-2.24707 1.19336,-3.580078 1.199707,-1.339355 3.199218,-1.339355 z" fill="#2a9d5c"/>
    <path d="m 107.69141,15.556641 q 0.41259,0.139648 0.7998,0.596679 0.39356,0.457032 0.78711,1.256836 L 110.57959,20 h -1.37744 l -1.2124,-2.431152 q -0.46973,-0.952149 -0.91407,-1.263184 -0.43798,-0.311035 -1.1997,-0.311035 h -1.39649 V 20 h -1.28222 v -9.477051 h 2.89453 q 1.625,0 2.4248,0.679199 0.79981,0.6792 0.79981,2.050293 0,0.89502 -0.41895,1.485352 -0.4126,0.590332 -1.20605,0.818848 z m -3.21192,-3.979981 v 3.364258 h 1.61231 q 0.92675,0 1.39648,-0.425293 0.47608,-0.431641 0.47608,-1.263184 0,-0.831543 -0.47608,-1.250488 -0.46973,-0.425293 -1.39648,-0.425293 z" fill="#2a9d5c"/>
    <path d="m 115.22998,10.522949 h 5.99219 v 1.079102 h -4.70996 v 2.805664 h 4.51318 v 1.079101 h -4.51318 v 3.434082 h 4.82422 V 20 h -6.10645 z" fill="#2a9d5c"/>
    <path d="m 132.2749,10.522949 h 1.37744 l 2.62793,3.897461 2.60889,-3.897461 h 1.37744 l -3.35156,4.963867 V 20 h -1.28858 v -4.513184 z" fill="#2a9d5c"/>
    <path d="m 147.65283,11.392578 q -1.39648,0 -2.22168,1.041016 -0.81885,1.041015 -0.81885,2.837402 0,1.790039 0.81885,2.831055 0.8252,1.041015 2.22168,1.041015 1.39649,0 2.20899,-1.041015 0.81884,-1.041016 0.81884,-2.831055 0,-1.796387 -0.81884,-2.837402 -0.8125,-1.041016 -2.20899,-1.041016 z m 0,-1.041015 q 1.99317,0 3.18653,1.339355 1.19335,1.333008 1.19335,3.580078 0,2.240723 -1.19335,3.580078 -1.19336,1.333008 -3.18653,1.333008 -1.99951,0 -3.19922,-1.333008 -1.19336,-1.333008 -1.19336,-3.580078 0,-2.24707 1.19336,-3.580078 1.19971,-1.339355 3.19922,-1.339355 z" fill="#2a9d5c"/>
    <path d="m 156.89258,10.522949 h 1.28857 v 5.757324 q 0,1.523438 0.55225,2.196289 0.55224,0.666504 1.79004,0.666504 1.23144,0 1.78369,-0.666504 0.55224,-0.672851 0.55224,-2.196289 v -5.757324 h 1.28858 v 5.916016 q 0,1.853515 -0.92041,2.799316 -0.91406,0.945801 -2.7041,0.945801 -1.79639,0 -2.7168,-0.945801 -0.91406,-0.945801 -0.91406,-2.799316 z" fill="#2a9d5c"/>
    <path d="m 176.68604,10.522949 h 5.99218 v 1.079102 h -4.70996 v 2.805664 h 4.51319 v 1.079101 h -4.51319 v 3.434082 h 4.82422 V 20 h -6.10644 z" fill="#2a9d5c"/>
    <path d="m 187.8999,10.522949 h 1.72656 l 4.20215,7.928223 v -7.928223 h 1.24414 V 20 h -1.72656 l -4.20215,-7.928223 V 20 h -1.24414 z" fill="#2a9d5c"/>
    <path d="m 199.31055,10.522949 h 8.01709 v 1.079102 h -3.36426 V 20 h -1.28858 v -8.397949 h -3.36425 z" fill="#2a9d5c"/>
    <path d="m 211.56543,10.522949 h 5.99219 v 1.079102 h -4.70996 v 2.805664 h 4.51318 v 1.079101 h -4.51318 v 3.434082 h 4.82421 V 20 h -6.10644 z" fill="#2a9d5c"/>
    <path d="m 227.27344,15.556641 q 0.4126,0.139648 0.7998,0.596679 0.39356,0.457032 0.78711,1.256836 L 230.16162,20 h -1.37744 l -1.2124,-2.431152 q -0.46973,-0.952149 -0.91407,-1.263184 -0.43798,-0.311035 -1.1997,-0.311035 h -1.39649 V 20 h -1.28222 v -9.477051 h 2.89453 q 1.625,0 2.4248,0.679199 0.79981,0.6792 0.79981,2.050293 0,0.89502 -0.41895,1.485352 -0.4126,0.590332 -1.20605,0.818848 z m -3.21192,-3.979981 v 3.364258 h 1.61231 q 0.92676,0 1.39648,-0.425293 0.47608,-0.431641 0.47608,-1.263184 0,-0.831543 -0.47608,-1.250488 -0.46972,-0.425293 -1.39648,-0.425293 z" fill="#2a9d5c"/>
  </g>

</svg>